<svg width="32" height="32" viewBox="0 0 32 32" fill="none" xmlns="http://www.w3.org/2000/svg">
  <path d="M16 2C16.5523 2 17 2.44772 17 3V5C17 5.55228 16.5523 6 16 6C15.4477 6 15 5.55228 15 5V3C15 2.44772 15.4477 2 16 2Z" fill="#0ea5e9"/>
  <path d="M16 8C16.5523 8 17 8.44772 17 9V11C17 11.5523 16.5523 12 16 12C15.4477 12 15 11.5523 15 11V9C15 8.44772 15.4477 8 16 8Z" fill="#0ea5e9"/>
  <path d="M16 14C16.5523 14 17 14.4477 17 15V17C17 17.5523 16.5523 18 16 18C15.4477 18 15 17.5523 15 17V15C15 14.4477 15.4477 14 16 14Z" fill="#0ea5e9"/>
  <path d="M16 20C16.5523 20 17 20.4477 17 21V23C17 23.5523 16.5523 24 16 24C15.4477 24 15 23.5523 15 23V21C15 20.4477 15.4477 20 16 20Z" fill="#0ea5e9"/>
  <path d="M16 26C16.5523 26 17 26.4477 17 27V29C17 29.5523 16.5523 30 16 30C15.4477 30 15 29.5523 15 29V27C15 26.4477 15.4477 26 16 26Z" fill="#0ea5e9"/>
  <path d="M8 4C8.55228 4 9 4.44772 9 5V7C9 7.55228 8.55228 8 8 8C7.44772 8 7 7.55228 7 7V5C7 4.44772 7.44772 4 8 4Z" fill="#8b5cf6"/>
  <path d="M8 10C8.55228 10 9 10.4477 9 11V13C9 13.5523 8.55228 14 8 14C7.44772 14 7 13.5523 7 13V11C7 10.4477 7.44772 10 8 10Z" fill="#8b5cf6"/>
  <path d="M8 16C8.55228 16 9 16.4477 9 17V19C9 19.5523 8.55228 20 8 20C7.44772 20 7 19.5523 7 19V17C7 16.4477 7.44772 16 8 16Z" fill="#8b5cf6"/>
  <path d="M8 22C8.55228 22 9 22.4477 9 23V25C9 25.5523 8.55228 26 8 26C7.44772 26 7 25.5523 7 25V23C7 22.4477 7.44772 22 8 22Z" fill="#8b5cf6"/>
  <path d="M8 28C8.55228 28 9 28.4477 9 29V29C9 29.5523 8.55228 30 8 30C7.44772 30 7 29.5523 7 29V29C7 28.4477 7.44772 28 8 28Z" fill="#8b5cf6"/>
  <path d="M24 4C24.5523 4 25 4.44772 25 5V7C25 7.55228 24.5523 8 24 8C23.4477 8 23 7.55228 23 7V5C23 4.44772 23.4477 4 24 4Z" fill="#8b5cf6"/>
  <path d="M24 10C24.5523 10 25 10.4477 25 11V13C25 13.5523 24.5523 14 24 14C23.4477 14 23 13.5523 23 13V11C23 10.4477 23.4477 10 24 10Z" fill="#8b5cf6"/>
  <path d="M24 16C24.5523 16 25 16.4477 25 17V19C25 19.5523 24.5523 20 24 20C23.4477 20 23 19.5523 23 19V17C23 16.4477 23.4477 16 24 16Z" fill="#8b5cf6"/>
  <path d="M24 22C24.5523 22 25 22.4477 25 23V25C25 25.5523 24.5523 26 24 26C23.4477 26 23 25.5523 23 25V23C23 22.4477 23.4477 22 24 22Z" fill="#8b5cf6"/>
  <path d="M24 28C24.5523 28 25 28.4477 25 29V29C25 29.5523 24.5523 30 24 30C23.4477 30 23 29.5523 23 29V29C23 28.4477 23.4477 28 24 28Z" fill="#8b5cf6"/>
  <path d="M4 6C4.55228 6 5 6.44772 5 7V9C5 9.55228 4.55228 10 4 10C3.44772 10 3 9.55228 3 9V7C3 6.44772 3.44772 6 4 6Z" fill="#10b981"/>
  <path d="M4 12C4.55228 12 5 12.4477 5 13V15C5 15.5523 4.55228 16 4 16C3.44772 16 3 15.5523 3 15V13C3 12.4477 3.44772 12 4 12Z" fill="#10b981"/>
  <path d="M4 18C4.55228 18 5 18.4477 5 19V21C5 21.5523 4.55228 22 4 22C3.44772 22 3 21.5523 3 21V19C3 18.4477 3.44772 18 4 18Z" fill="#10b981"/>
  <path d="M4 24C4.55228 24 5 24.4477 5 25V27C5 27.5523 4.55228 28 4 28C3.44772 28 3 27.5523 3 27V25C3 24.4477 3.44772 24 4 24Z" fill="#10b981"/>
  <path d="M28 6C28.5523 6 29 6.44772 29 7V9C29 9.55228 28.5523 10 28 10C27.4477 10 27 9.55228 27 9V7C27 6.44772 27.4477 6 28 6Z" fill="#10b981"/>
  <path d="M28 12C28.5523 12 29 12.4477 29 13V15C29 15.5523 28.5523 16 28 16C27.4477 16 27 15.5523 27 15V13C27 12.4477 27.4477 12 28 12Z" fill="#10b981"/>
  <path d="M28 18C28.5523 18 29 18.4477 29 19V21C29 21.5523 28.5523 22 28 22C27.4477 22 27 21.5523 27 21V19C27 18.4477 27.4477 18 28 18Z" fill="#10b981"/>
  <path d="M28 24C28.5523 24 29 24.4477 29 25V27C29 27.5523 28.5523 28 28 28C27.4477 28 27 27.5523 27 27V25C27 24.4477 27.4477 24 28 24Z" fill="#10b981"/>
</svg>


